<mxfile host="app.diagrams.net" modified="2020-08-07T04:11:55.164Z" agent="5.0 (Windows NT 10.0; Win64; x64) AppleWebKit/537.36 (KHTML, like Gecko) Chrome/84.0.4147.105 Safari/537.36" etag="fTI8WNbRw9_TdnKG5NkH" version="13.6.0" type="github">
  <diagram id="R2lEEEUBdFMjLlhIrx00" name="Page-1">
    <mxGraphModel dx="1483" dy="759" grid="1" gridSize="10" guides="1" tooltips="1" connect="1" arrows="1" fold="1" page="1" pageScale="1" pageWidth="850" pageHeight="1100" math="0" shadow="0" extFonts="Permanent Marker^https://fonts.googleapis.com/css?family=Permanent+Marker">
      <root>
        <mxCell id="0" />
        <mxCell id="1" parent="0" />
        <mxCell id="49vjqoaJR5bBM9CJaVOf-1" value="User" style="shape=table;startSize=30;container=1;collapsible=1;childLayout=tableLayout;fixedRows=1;rowLines=0;fontStyle=1;align=center;resizeLast=1;" vertex="1" parent="1">
          <mxGeometry x="150" y="40" width="250" height="330" as="geometry" />
        </mxCell>
        <mxCell id="49vjqoaJR5bBM9CJaVOf-2" value="" style="shape=partialRectangle;collapsible=0;dropTarget=0;pointerEvents=0;fillColor=none;points=[[0,0.5],[1,0.5]];portConstraint=eastwest;top=0;left=0;right=0;bottom=1;" vertex="1" parent="49vjqoaJR5bBM9CJaVOf-1">
          <mxGeometry y="30" width="250" height="40" as="geometry" />
        </mxCell>
        <mxCell id="49vjqoaJR5bBM9CJaVOf-3" value="PK" style="shape=partialRectangle;overflow=hidden;connectable=0;fillColor=none;top=0;left=0;bottom=0;right=0;fontStyle=1;" vertex="1" parent="49vjqoaJR5bBM9CJaVOf-2">
          <mxGeometry width="20" height="40" as="geometry" />
        </mxCell>
        <mxCell id="49vjqoaJR5bBM9CJaVOf-4" value="user_id uuid NOT NULL " style="shape=partialRectangle;overflow=hidden;connectable=0;fillColor=none;top=0;left=0;bottom=0;right=0;align=left;spacingLeft=6;fontStyle=5;" vertex="1" parent="49vjqoaJR5bBM9CJaVOf-2">
          <mxGeometry x="20" width="230" height="40" as="geometry" />
        </mxCell>
        <mxCell id="49vjqoaJR5bBM9CJaVOf-5" value="" style="shape=partialRectangle;collapsible=0;dropTarget=0;pointerEvents=0;fillColor=none;points=[[0,0.5],[1,0.5]];portConstraint=eastwest;top=0;left=0;right=0;bottom=0;" vertex="1" parent="49vjqoaJR5bBM9CJaVOf-1">
          <mxGeometry y="70" width="250" height="30" as="geometry" />
        </mxCell>
        <mxCell id="49vjqoaJR5bBM9CJaVOf-6" value="" style="shape=partialRectangle;overflow=hidden;connectable=0;fillColor=none;top=0;left=0;bottom=0;right=0;" vertex="1" parent="49vjqoaJR5bBM9CJaVOf-5">
          <mxGeometry width="20" height="30" as="geometry" />
        </mxCell>
        <mxCell id="49vjqoaJR5bBM9CJaVOf-7" value="username Char(100) NOT NULL" style="shape=partialRectangle;overflow=hidden;connectable=0;fillColor=none;top=0;left=0;bottom=0;right=0;align=left;spacingLeft=6;" vertex="1" parent="49vjqoaJR5bBM9CJaVOf-5">
          <mxGeometry x="20" width="230" height="30" as="geometry" />
        </mxCell>
        <mxCell id="49vjqoaJR5bBM9CJaVOf-8" value="Directory" style="shape=table;startSize=30;container=1;collapsible=1;childLayout=tableLayout;fixedRows=1;rowLines=0;fontStyle=1;align=center;resizeLast=1;" vertex="1" parent="1">
          <mxGeometry x="490" y="110" width="250" height="350" as="geometry" />
        </mxCell>
        <mxCell id="49vjqoaJR5bBM9CJaVOf-9" value="" style="shape=partialRectangle;collapsible=0;dropTarget=0;pointerEvents=0;fillColor=none;points=[[0,0.5],[1,0.5]];portConstraint=eastwest;top=0;left=0;right=0;bottom=1;" vertex="1" parent="49vjqoaJR5bBM9CJaVOf-8">
          <mxGeometry y="30" width="250" height="30" as="geometry" />
        </mxCell>
        <mxCell id="49vjqoaJR5bBM9CJaVOf-10" value="PK" style="shape=partialRectangle;overflow=hidden;connectable=0;fillColor=none;top=0;left=0;bottom=0;right=0;fontStyle=1;" vertex="1" parent="49vjqoaJR5bBM9CJaVOf-9">
          <mxGeometry width="30" height="30" as="geometry" />
        </mxCell>
        <mxCell id="49vjqoaJR5bBM9CJaVOf-11" value="dir_id uuid NOT NULL" style="shape=partialRectangle;overflow=hidden;connectable=0;fillColor=none;top=0;left=0;bottom=0;right=0;align=left;spacingLeft=6;fontStyle=5;" vertex="1" parent="49vjqoaJR5bBM9CJaVOf-9">
          <mxGeometry x="30" width="220" height="30" as="geometry" />
        </mxCell>
        <mxCell id="49vjqoaJR5bBM9CJaVOf-12" value="" style="shape=partialRectangle;collapsible=0;dropTarget=0;pointerEvents=0;fillColor=none;points=[[0,0.5],[1,0.5]];portConstraint=eastwest;top=0;left=0;right=0;bottom=0;" vertex="1" parent="49vjqoaJR5bBM9CJaVOf-8">
          <mxGeometry y="60" width="250" height="30" as="geometry" />
        </mxCell>
        <mxCell id="49vjqoaJR5bBM9CJaVOf-13" value="FK1" style="shape=partialRectangle;overflow=hidden;connectable=0;fillColor=none;top=0;left=0;bottom=0;right=0;" vertex="1" parent="49vjqoaJR5bBM9CJaVOf-12">
          <mxGeometry width="30" height="30" as="geometry" />
        </mxCell>
        <mxCell id="49vjqoaJR5bBM9CJaVOf-14" value="user_id uuid NOT NULL" style="shape=partialRectangle;overflow=hidden;connectable=0;fillColor=none;top=0;left=0;bottom=0;right=0;align=left;spacingLeft=6;" vertex="1" parent="49vjqoaJR5bBM9CJaVOf-12">
          <mxGeometry x="30" width="220" height="30" as="geometry" />
        </mxCell>
        <mxCell id="49vjqoaJR5bBM9CJaVOf-15" value="" style="shape=partialRectangle;collapsible=0;dropTarget=0;pointerEvents=0;fillColor=none;points=[[0,0.5],[1,0.5]];portConstraint=eastwest;top=0;left=0;right=0;bottom=0;" vertex="1" parent="49vjqoaJR5bBM9CJaVOf-8">
          <mxGeometry y="90" width="250" height="40" as="geometry" />
        </mxCell>
        <mxCell id="49vjqoaJR5bBM9CJaVOf-16" value="" style="shape=partialRectangle;overflow=hidden;connectable=0;fillColor=none;top=0;left=0;bottom=0;right=0;" vertex="1" parent="49vjqoaJR5bBM9CJaVOf-15">
          <mxGeometry width="30" height="40" as="geometry" />
        </mxCell>
        <mxCell id="49vjqoaJR5bBM9CJaVOf-17" value="name char(100) NOT NULL" style="shape=partialRectangle;overflow=hidden;connectable=0;fillColor=none;top=0;left=0;bottom=0;right=0;align=left;spacingLeft=6;" vertex="1" parent="49vjqoaJR5bBM9CJaVOf-15">
          <mxGeometry x="30" width="220" height="40" as="geometry" />
        </mxCell>
        <mxCell id="49vjqoaJR5bBM9CJaVOf-18" value="path char(100) NOT NULL" style="shape=partialRectangle;overflow=hidden;connectable=0;fillColor=none;top=0;left=0;bottom=0;right=0;align=left;spacingLeft=6;" vertex="1" parent="1">
          <mxGeometry x="520" y="230" width="220" height="40" as="geometry" />
        </mxCell>
        <mxCell id="49vjqoaJR5bBM9CJaVOf-19" value="parent_id NOT NULL" style="shape=partialRectangle;overflow=hidden;connectable=0;fillColor=none;top=0;left=0;bottom=0;right=0;align=left;spacingLeft=6;" vertex="1" parent="1">
          <mxGeometry x="520" y="260" width="220" height="40" as="geometry" />
        </mxCell>
        <mxCell id="49vjqoaJR5bBM9CJaVOf-20" value="isDeleted bool NOT NULL" style="shape=partialRectangle;overflow=hidden;connectable=0;fillColor=none;top=0;left=0;bottom=0;right=0;align=left;spacingLeft=6;" vertex="1" parent="1">
          <mxGeometry x="520" y="290" width="220" height="40" as="geometry" />
        </mxCell>
        <mxCell id="49vjqoaJR5bBM9CJaVOf-21" value="createdAt date NOT NULL" style="shape=partialRectangle;overflow=hidden;connectable=0;fillColor=none;top=0;left=0;bottom=0;right=0;align=left;spacingLeft=6;" vertex="1" parent="1">
          <mxGeometry x="520" y="320" width="220" height="40" as="geometry" />
        </mxCell>
        <mxCell id="49vjqoaJR5bBM9CJaVOf-22" value="updatedAt date NOT NULL" style="shape=partialRectangle;overflow=hidden;connectable=0;fillColor=none;top=0;left=0;bottom=0;right=0;align=left;spacingLeft=6;" vertex="1" parent="1">
          <mxGeometry x="520" y="350" width="220" height="40" as="geometry" />
        </mxCell>
        <mxCell id="49vjqoaJR5bBM9CJaVOf-23" value="createdBy uuid NOT NULL" style="shape=partialRectangle;overflow=hidden;connectable=0;fillColor=none;top=0;left=0;bottom=0;right=0;align=left;spacingLeft=6;" vertex="1" parent="1">
          <mxGeometry x="520" y="380" width="220" height="40" as="geometry" />
        </mxCell>
        <mxCell id="49vjqoaJR5bBM9CJaVOf-24" value="updatedBy uuid NOT NULL" style="shape=partialRectangle;overflow=hidden;connectable=0;fillColor=none;top=0;left=0;bottom=0;right=0;align=left;spacingLeft=6;" vertex="1" parent="1">
          <mxGeometry x="520" y="410" width="220" height="40" as="geometry" />
        </mxCell>
        <mxCell id="49vjqoaJR5bBM9CJaVOf-25" value="password Char(500) NOT NULL" style="shape=partialRectangle;overflow=hidden;connectable=0;fillColor=none;top=0;left=0;bottom=0;right=0;align=left;spacingLeft=6;" vertex="1" parent="1">
          <mxGeometry x="170" y="140" width="230" height="30" as="geometry" />
        </mxCell>
        <mxCell id="49vjqoaJR5bBM9CJaVOf-26" value="authTokens Object NOT NULL" style="shape=partialRectangle;overflow=hidden;connectable=0;fillColor=none;top=0;left=0;bottom=0;right=0;align=left;spacingLeft=6;" vertex="1" parent="1">
          <mxGeometry x="170" y="170" width="230" height="30" as="geometry" />
        </mxCell>
        <mxCell id="49vjqoaJR5bBM9CJaVOf-27" value="isDeleted bool NOT NULL" style="shape=partialRectangle;overflow=hidden;connectable=0;fillColor=none;top=0;left=0;bottom=0;right=0;align=left;spacingLeft=6;" vertex="1" parent="1">
          <mxGeometry x="170" y="200" width="220" height="40" as="geometry" />
        </mxCell>
        <mxCell id="49vjqoaJR5bBM9CJaVOf-28" value="createdAt date NOT NULL" style="shape=partialRectangle;overflow=hidden;connectable=0;fillColor=none;top=0;left=0;bottom=0;right=0;align=left;spacingLeft=6;" vertex="1" parent="1">
          <mxGeometry x="170" y="230" width="220" height="40" as="geometry" />
        </mxCell>
        <mxCell id="49vjqoaJR5bBM9CJaVOf-29" value="updatedAt date NOT NULL" style="shape=partialRectangle;overflow=hidden;connectable=0;fillColor=none;top=0;left=0;bottom=0;right=0;align=left;spacingLeft=6;" vertex="1" parent="1">
          <mxGeometry x="170" y="260" width="220" height="40" as="geometry" />
        </mxCell>
        <mxCell id="49vjqoaJR5bBM9CJaVOf-30" value="createdBy uuid NOT NULL" style="shape=partialRectangle;overflow=hidden;connectable=0;fillColor=none;top=0;left=0;bottom=0;right=0;align=left;spacingLeft=6;" vertex="1" parent="1">
          <mxGeometry x="170" y="290" width="220" height="40" as="geometry" />
        </mxCell>
        <mxCell id="49vjqoaJR5bBM9CJaVOf-31" value="updatedBy uuid NOT NULL" style="shape=partialRectangle;overflow=hidden;connectable=0;fillColor=none;top=0;left=0;bottom=0;right=0;align=left;spacingLeft=6;" vertex="1" parent="1">
          <mxGeometry x="170" y="320" width="220" height="40" as="geometry" />
        </mxCell>
        <mxCell id="49vjqoaJR5bBM9CJaVOf-32" value="fileName char(100) NOT NULL" style="shape=partialRectangle;overflow=hidden;connectable=0;fillColor=none;top=0;left=0;bottom=0;right=0;align=left;spacingLeft=6;" vertex="1" parent="1">
          <mxGeometry x="180" y="530" width="220" height="30" as="geometry" />
        </mxCell>
        <mxCell id="49vjqoaJR5bBM9CJaVOf-33" value="fileContent char(2000) NOT NULL" style="shape=partialRectangle;overflow=hidden;connectable=0;fillColor=none;top=0;left=0;bottom=0;right=0;align=left;spacingLeft=6;" vertex="1" parent="1">
          <mxGeometry x="180" y="560" width="220" height="30" as="geometry" />
        </mxCell>
        <mxCell id="49vjqoaJR5bBM9CJaVOf-34" value="isDeleted bool NOT NULL" style="shape=partialRectangle;overflow=hidden;connectable=0;fillColor=none;top=0;left=0;bottom=0;right=0;align=left;spacingLeft=6;" vertex="1" parent="1">
          <mxGeometry x="180" y="580" width="220" height="40" as="geometry" />
        </mxCell>
        <mxCell id="49vjqoaJR5bBM9CJaVOf-35" value="createdAt date NOT NULL" style="shape=partialRectangle;overflow=hidden;connectable=0;fillColor=none;top=0;left=0;bottom=0;right=0;align=left;spacingLeft=6;" vertex="1" parent="1">
          <mxGeometry x="180" y="610" width="220" height="40" as="geometry" />
        </mxCell>
        <mxCell id="49vjqoaJR5bBM9CJaVOf-36" value="updatedAt date NOT NULL" style="shape=partialRectangle;overflow=hidden;connectable=0;fillColor=none;top=0;left=0;bottom=0;right=0;align=left;spacingLeft=6;" vertex="1" parent="1">
          <mxGeometry x="180" y="640" width="220" height="40" as="geometry" />
        </mxCell>
        <mxCell id="49vjqoaJR5bBM9CJaVOf-37" value="createdBy uuid NOT NULL" style="shape=partialRectangle;overflow=hidden;connectable=0;fillColor=none;top=0;left=0;bottom=0;right=0;align=left;spacingLeft=6;" vertex="1" parent="1">
          <mxGeometry x="180" y="670" width="220" height="40" as="geometry" />
        </mxCell>
        <mxCell id="49vjqoaJR5bBM9CJaVOf-38" value="updatedBy uuid NOT NULL" style="shape=partialRectangle;overflow=hidden;connectable=0;fillColor=none;top=0;left=0;bottom=0;right=0;align=left;spacingLeft=6;" vertex="1" parent="1">
          <mxGeometry x="180" y="700" width="220" height="40" as="geometry" />
        </mxCell>
        <mxCell id="49vjqoaJR5bBM9CJaVOf-39" value="" style="edgeStyle=entityRelationEdgeStyle;fontSize=12;html=1;endArrow=ERoneToMany;" edge="1" parent="1">
          <mxGeometry width="100" height="100" relative="1" as="geometry">
            <mxPoint x="400" y="90" as="sourcePoint" />
            <mxPoint x="490" y="190" as="targetPoint" />
          </mxGeometry>
        </mxCell>
        <mxCell id="49vjqoaJR5bBM9CJaVOf-40" value="File" style="shape=table;startSize=30;container=1;collapsible=1;childLayout=tableLayout;fixedRows=1;rowLines=0;fontStyle=1;align=center;resizeLast=1;" vertex="1" parent="1">
          <mxGeometry x="150" y="410" width="250" height="330" as="geometry" />
        </mxCell>
        <mxCell id="49vjqoaJR5bBM9CJaVOf-41" value="" style="shape=partialRectangle;collapsible=0;dropTarget=0;pointerEvents=0;fillColor=none;points=[[0,0.5],[1,0.5]];portConstraint=eastwest;top=0;left=0;right=0;bottom=1;" vertex="1" parent="49vjqoaJR5bBM9CJaVOf-40">
          <mxGeometry y="30" width="250" height="30" as="geometry" />
        </mxCell>
        <mxCell id="49vjqoaJR5bBM9CJaVOf-42" value="PK" style="shape=partialRectangle;overflow=hidden;connectable=0;fillColor=none;top=0;left=0;bottom=0;right=0;fontStyle=1;" vertex="1" parent="49vjqoaJR5bBM9CJaVOf-41">
          <mxGeometry width="30" height="30" as="geometry" />
        </mxCell>
        <mxCell id="49vjqoaJR5bBM9CJaVOf-43" value="file_id uuid NOT NULL" style="shape=partialRectangle;overflow=hidden;connectable=0;fillColor=none;top=0;left=0;bottom=0;right=0;align=left;spacingLeft=6;fontStyle=5;" vertex="1" parent="49vjqoaJR5bBM9CJaVOf-41">
          <mxGeometry x="30" width="220" height="30" as="geometry" />
        </mxCell>
        <mxCell id="49vjqoaJR5bBM9CJaVOf-44" value="" style="shape=partialRectangle;collapsible=0;dropTarget=0;pointerEvents=0;fillColor=none;points=[[0,0.5],[1,0.5]];portConstraint=eastwest;top=0;left=0;right=0;bottom=0;" vertex="1" parent="49vjqoaJR5bBM9CJaVOf-40">
          <mxGeometry y="60" width="250" height="30" as="geometry" />
        </mxCell>
        <mxCell id="49vjqoaJR5bBM9CJaVOf-45" value="FK1" style="shape=partialRectangle;overflow=hidden;connectable=0;fillColor=none;top=0;left=0;bottom=0;right=0;" vertex="1" parent="49vjqoaJR5bBM9CJaVOf-44">
          <mxGeometry width="30" height="30" as="geometry" />
        </mxCell>
        <mxCell id="49vjqoaJR5bBM9CJaVOf-46" value="user_id uuid NOT NULL" style="shape=partialRectangle;overflow=hidden;connectable=0;fillColor=none;top=0;left=0;bottom=0;right=0;align=left;spacingLeft=6;" vertex="1" parent="49vjqoaJR5bBM9CJaVOf-44">
          <mxGeometry x="30" width="220" height="30" as="geometry" />
        </mxCell>
        <mxCell id="49vjqoaJR5bBM9CJaVOf-47" value="" style="shape=partialRectangle;collapsible=0;dropTarget=0;pointerEvents=0;fillColor=none;points=[[0,0.5],[1,0.5]];portConstraint=eastwest;top=0;left=0;right=0;bottom=0;" vertex="1" parent="49vjqoaJR5bBM9CJaVOf-40">
          <mxGeometry y="90" width="250" height="30" as="geometry" />
        </mxCell>
        <mxCell id="49vjqoaJR5bBM9CJaVOf-48" value="FK2" style="shape=partialRectangle;overflow=hidden;connectable=0;fillColor=none;top=0;left=0;bottom=0;right=0;" vertex="1" parent="49vjqoaJR5bBM9CJaVOf-47">
          <mxGeometry width="30" height="30" as="geometry" />
        </mxCell>
        <mxCell id="49vjqoaJR5bBM9CJaVOf-49" value="dir_id uuid NOT NULL" style="shape=partialRectangle;overflow=hidden;connectable=0;fillColor=none;top=0;left=0;bottom=0;right=0;align=left;spacingLeft=6;" vertex="1" parent="49vjqoaJR5bBM9CJaVOf-47">
          <mxGeometry x="30" width="220" height="30" as="geometry" />
        </mxCell>
        <mxCell id="49vjqoaJR5bBM9CJaVOf-50" style="edgeStyle=orthogonalEdgeStyle;rounded=0;orthogonalLoop=1;jettySize=auto;html=1;exitX=1;exitY=0.5;exitDx=0;exitDy=0;entryX=1;entryY=0.5;entryDx=0;entryDy=0;endArrow=ERmany;endFill=0;" edge="1" parent="1" source="49vjqoaJR5bBM9CJaVOf-9" target="49vjqoaJR5bBM9CJaVOf-47">
          <mxGeometry relative="1" as="geometry">
            <Array as="points">
              <mxPoint x="800" y="155" />
              <mxPoint x="800" y="515" />
            </Array>
          </mxGeometry>
        </mxCell>
        <mxCell id="49vjqoaJR5bBM9CJaVOf-51" style="edgeStyle=orthogonalEdgeStyle;rounded=0;orthogonalLoop=1;jettySize=auto;html=1;exitX=0;exitY=0.5;exitDx=0;exitDy=0;entryX=0;entryY=0.5;entryDx=0;entryDy=0;endArrow=ERmany;endFill=0;" edge="1" parent="1" source="49vjqoaJR5bBM9CJaVOf-2" target="49vjqoaJR5bBM9CJaVOf-44">
          <mxGeometry relative="1" as="geometry">
            <Array as="points">
              <mxPoint x="80" y="90" />
              <mxPoint x="80" y="485" />
            </Array>
          </mxGeometry>
        </mxCell>
      </root>
    </mxGraphModel>
  </diagram>
</mxfile>
